PathFileType	4	(X/Y/Z)	Walk6.trc
DataRate	CameraRate	NumFrames	NumMarkers	Units	OrigDataRate	OrigDataStartFrame	OrigNumFrames
200.000000	200.000000	4	58	mm	200.000000	254	562
Frame#	Times		RBHD		RASI		RACR1		RUA1		RFA1		RCAR		C7		LFA1		RElbow		RTH3		RTH2		LElbowM		RTB3		LTH2		RTH1		RTB1		RLFC		RMT1		RTB2		RMT5		RTB4		LACR1		LTH3		LElbow		RWRR		LTH4		LWRU		LPSI		RPSI		LTB1		T10		LWRR		LLFC		RWRU		LBHD		LTB3		LTB2		RFHD		LTH1		LTB4		LMT1		LFHD		RBack		LMMAL		RTH4		LASI		LCAL		LLMAL		CLAV		LCAR		LMT5		RLMAL		LToe		RToe		RMMAL		LUA1		RElbowM		RCAL
			X1	Y1	Z1	X2	Y2	Z2	X3	Y3	Z3	X4	Y4	Z4	X5	Y5	Z5	X6	Y6	Z6	X7	Y7	Z7	X8	Y8	Z8	X9	Y9	Z9	X10	Y10	Z10	X11	Y11	Z11	X12	Y12	Z12	X13	Y13	Z13	X14	Y14	Z14	X15	Y15	Z15	X16	Y16	Z16	X17	Y17	Z17	X18	Y18	Z18	X19	Y19	Z19	X20	Y20	Z20	X21	Y21	Z21	X22	Y22	Z22	X23	Y23	Z23	X24	Y24	Z24	X25	Y25	Z25	X26	Y26	Z26	X27	Y27	Z27	X28	Y28	Z28	X29	Y29	Z29	X30	Y30	Z30	X31	Y31	Z31	X32	Y32	Z32	X33	Y33	Z33	X34	Y34	Z34	X35	Y35	Z35	X36	Y36	Z36	X37	Y37	Z37	X38	Y38	Z38	X39	Y39	Z39	X40	Y40	Z40	X41	Y41	Z41	X42	Y42	Z42	X43	Y43	Z43	X44	Y44	Z44	X45	Y45	Z45	X46	Y46	Z46	X47	Y47	Z47	X48	Y48	Z48	X49	Y49	Z49	X50	Y50	Z50	X51	Y51	Z51	X52	Y52	Z52	X53	Y53	Z53	X54	Y54	Z54	X55	Y55	Z55	X56	Y56	Z56	X57	Y57	Z57	X58	Y58	Z58

254	1.27	-560.21	1546.4	349.78	-500.91	911.73	409.85	-527.81	1367.8	427.91	-611.03	1190	508.17	-674.7	929.71	556.96	-680.46	741.84	560.2	-589.41	1416.3	275.78	-486.93	985.49	-45.533	-683.38	1077	531.05	-427.43	547.78	429.98	-413.64	664.84	414.05	-639.88	1079.5	52.947	-271.08	204.11	326.35	-559.27	618.83	120.37	-510.67	714.91	464.07	-324.32	387.18	329.11	-388.6	456.88	408.22	-134.5	89.877	283.37	-312.18	289.52	400.48	-157.65	71.925	363.08	-296.1	298.74	329.47	-545.93	1405.6	102.55	-651.17	551.28	97.712	-614.68	1087.3	-24.988	-641.12	788.71	520.24	-624.25	635.42	81.418	-461.77	869.12	-35.513	-686.97	939.08	215.12	-685.53	936.12	320.04	-702.14	340.38	178.12	-691.93	1109.5	265.03	-402.1	911.76	0.70875	-703.62	441.34	116.94	-711.77	803	551.5	-558.18	1551.6	211.53	-800.43	184.11	197.81	-780.82	272.84	122.65	-376.8	1579.7	320.49	-594.88	728.05	74.13	-753.4	263.59	188.67	-765.99	35.69	254.53	-376.28	1576.9	238.69	-665.22	1328.6	366.65	-878.39	110.2	264.19	-467.92	630.97	451.35	-520.28	922.65	106.29	-972.09	71.494	227.77	-914.23	99.497	178.89	-455.87	1331.2	264.75	-378.98	864.29	-46.58	-796.4	28.655	164.38	-292.86	84.386	361.98	-718.5	24.192	240.87	-95.628	112.88	312.29	-270.24	111.16	277.8	-584.44	1216.3	-0.78235	-704.44	1056.8	437.98	-319.39	22.574	316.6
255	1.275	-553.71	1545.3	350.66	-493.22	910.75	410.36	-521.32	1366.7	428.7	-604.28	1188.7	508.42	-667.99	928.34	557.07	-674.08	740.51	560.25	-582.26	1415	276.6	-479.15	984.93	-45.327	-676.69	1075.6	531.05	-418.03	547.47	429.73	-403.9	664.76	414.16	-632.41	1078.7	53.18	-265.3	202.13	325.14	-552.68	618.07	120.56	-501.12	714.62	464.17	-316.7	385.64	328.26	-379.41	456.32	407.77	-130.29	86.614	281.84	-304.73	288.09	399.5	-153.15	69.127	361.74	-289.28	296.82	328.55	-538.59	1404.6	102.98	-645	550.46	97.89	-607.14	1086.3	-24.82	-634.58	786.99	520.64	-617.81	634.79	81.753	-453.71	868.48	-35.045	-679.33	937.79	215.57	-677.55	934.92	320.47	-697.13	339.61	177.8	-684.4	1108	265.15	-394.3	911.32	1.1167	-697.63	440.53	116.86	-705.28	801.39	551.42	-551.28	1550.5	212.42	-797.65	184.61	197.63	-776.79	273.32	122.3	-369.87	1578.8	321.51	-587.96	727.19	74.201	-749.65	263.52	188.42	-765.95	35.668	254.44	-369.49	1576.1	239.89	-658.64	1327.2	366.95	-876.88	111.73	263.68	-458.58	630.68	451.42	-512.67	921.5	106.48	-971.29	74.61	227.14	-912.91	101.64	178.28	-448.74	1330.4	265.47	-370.91	863.91	-46.123	-796.2	28.796	164.33	-288.1	82.725	361.35	-718.55	24.215	240.96	-90.757	109.44	310.25	-265.84	108.74	276.82	-577.02	1215.4	-0.34725	-697.49	1055.4	438.01	-316.25	22.228	316.71
256	1.28	-547.17	1544.1	351.54	-485.34	909.65	410.92	-514.71	1365.3	429.51	-597.23	1187.1	508.92	-661.22	926.8	557.33	-667.32	738.88	560.29	-575.33	1413.7	277.13	-471.67	984.13	-45.023	-669.78	1074.1	531.29	-408.7	547.16	429.33	-394.43	664.53	414.1	-624.83	1077.8	53.521	-259.9	199.86	323.89	-545.86	616.98	120.69	-491.8	714.36	463.61	-309.24	383.71	327.55	-370.08	455.53	407.5	-126.64	83.198	280.19	-297.54	286.33	398.6	-149.56	65.797	359.78	-282.64	294.87	327.35	-530.99	1403.5	103.71	-638.55	549.45	98.061	-599.79	1085.5	-24.547	-627.62	785.41	520.77	-611.19	633.95	82.041	-445.72	867.67	-34.394	-671.53	936.77	215.99	-669.67	933.78	320.89	-692.12	338.8	177.92	-676.92	1106.6	265.54	-386.48	910.87	1.5534	-691.47	439.95	116.86	-698.83	799.79	551.66	-544.82	1549.6	213.23	-794.79	185.36	196.9	-772.46	273.43	122.2	-363.15	1577.8	322.57	-580.82	726.49	74.535	-745.83	263.49	188.33	-765.84	35.712	254.25	-362.73	1575.2	240.9	-651.66	1325.8	367.29	-875.23	113.32	263.18	-449.28	629.99	451.26	-504.83	920.36	106.92	-970.26	78.003	226.52	-911.32	103.74	177.67	-441.43	1329.3	266.1	-362.95	863.29	-45.638	-796	28.978	164.28	-283.86	80.785	360.52	-718.61	24.197	240.97	-86.508	105.85	307.91	-261.95	106.11	275.65	-569.75	1214.6	0.050498	-690.53	1054	438.17	-314.38	22.545	316.62
257	1.285	-540.44	1542.7	352.56	-477.33	908.71	411.48	-507.92	1364.2	430.27	-590.47	1185.8	509.34	-654.48	925.26	557.72	-660.41	737.4	560.49	-568.34	1412.4	277.74	-464.22	983.28	-44.579	-663.12	1072.7	531.79	-399.65	546.81	428.78	-384.98	664.3	414.43	-617.49	1076.7	53.88	-254.25	197.65	322.42	-538.82	615.93	120.58	-482.52	713.87	463.06	-301.76	381.96	326.6	-361.22	454.57	407.39	-123.37	78.388	279.38	-290.5	284.5	397.28	-146.34	60.38	357.82	-275.94	292.69	325.99	-523.93	1402.6	104.42	-631.65	548.79	98.119	-592.21	1084.5	-24.324	-620.99	784.2	521.04	-604.09	633.16	82.366	-438.07	866.87	-33.905	-663.75	935.57	216.25	-661.54	932.66	321.26	-686.92	337.65	177.65	-669.27	1105.2	265.91	-378.96	910.3	1.9499	-685.15	439.29	117.07	-691.87	798.3	551.67	-537.79	1548.6	214.14	-792.17	185.89	196.75	-768.29	273.73	121.91	-356.55	1577.1	323.6	-573.85	725.4	74.852	-741.94	263.31	188.34	-765.69	35.729	254.14	-356.22	1574.5	242.32	-644.71	1324.3	367.8	-873.67	115.11	262.71	-440.21	629.55	450.84	-497.17	919.11	107.5	-969.11	81.223	225.95	-909.67	106	177.2	-434.19	1328.3	266.72	-355.38	862.88	-44.962	-795.8	29.058	164.22	-279.87	78.59	359.44	-718.63	24.194	240.98	-83.041	100.16	304.51	-258.37	103.71	274.29	-562.46	1213.5	0.57851	-683.28	1052.2	438.44	-313.69	23.453	315.95
